<svg width="23" height="20" viewBox="0 0 23 20" fill="none" xmlns="http://www.w3.org/2000/svg">
<path fill-rule="evenodd" clip-rule="evenodd" d="M9 0C7.34315 0 6 1.34315 6 3V4.90476C6 3.24791 7.34315 1.90476 9 1.90476H18.381C20.0378 1.90476 21.381 3.24791 21.381 4.90476V15.0952C21.381 16.7521 20.0378 18.0952 18.381 18.0952H9C7.34315 18.0952 6 16.7521 6 15.0952V17C6 18.6569 7.34315 20 9 20H20C21.6569 20 23 18.6569 23 17V3C23 1.34315 21.6569 0 20 0H9Z" fill="#FFE600" fill-opacity="0.85"/>
<path d="M16 10L11 7.11325V12.8868L16 10ZM0 10.5H11.5V9.5H0V10.5Z" fill="#FFE600" fill-opacity="0.85"/>
</svg>
