<svg width="182" height="44" viewBox="0 0 182 44" fill="none" xmlns="http://www.w3.org/2000/svg">
<path d="M20.736 20.176H17.136L30.24 6.64H36.24V22H30.24V11.536L32.04 12.28L22.56 22H15.36L5.856 12.304L7.68 11.56V22H1.68V6.64H7.68L20.736 20.176ZM47.7139 22.336C45.9859 22.336 44.4499 22.096 43.1059 21.616C41.7619 21.12 40.6979 20.408 39.9139 19.48C39.1459 18.552 38.7619 17.432 38.7619 16.12C38.7619 14.744 39.1459 13.592 39.9139 12.664C40.6979 11.736 41.7619 11.04 43.1059 10.576C44.4499 10.112 45.9859 9.88 47.7139 9.88C49.6339 9.88 51.2899 10.144 52.6819 10.672C54.0899 11.184 55.1699 11.912 55.9219 12.856C56.6899 13.784 57.0739 14.872 57.0739 16.12C57.0739 17.048 56.8579 17.896 56.4259 18.664C55.9939 19.416 55.3699 20.072 54.5539 20.632C53.7379 21.176 52.7539 21.6 51.6019 21.904C50.4499 22.192 49.1539 22.336 47.7139 22.336ZM49.8739 18.688C51.0899 18.688 52.2019 18.616 53.2099 18.472C54.2339 18.312 55.0499 18.048 55.6579 17.68C56.2819 17.312 56.5939 16.792 56.5939 16.12C56.5939 15.432 56.2819 14.904 55.6579 14.536C55.0499 14.168 54.2339 13.912 53.2099 13.768C52.2019 13.624 51.0899 13.552 49.8739 13.552C48.2419 13.552 46.9779 13.768 46.0819 14.2C45.1859 14.616 44.7379 15.256 44.7379 16.12C44.7379 16.68 44.9379 17.152 45.3379 17.536C45.7379 17.92 46.3219 18.208 47.0899 18.4C47.8579 18.592 48.7859 18.688 49.8739 18.688ZM56.5939 10.24H62.3539V22H56.9299C56.9299 22 56.8979 21.816 56.8339 21.448C56.7859 21.08 56.7299 20.552 56.6659 19.864C56.6179 19.176 56.5939 18.368 56.5939 17.44V10.24ZM86.2453 10.24L76.6453 17.152L70.7413 22H63.6853L73.4293 14.8L79.1893 10.24H86.2453ZM63.6853 10.24H70.7413L76.7893 14.632L86.7253 22H79.6693L73.3573 17.416L63.6853 10.24ZM112.849 6.64V11.2H94.6566V13.24H109.537V17.32H94.6566V22H88.6566V6.64H112.849ZM121.463 4.072V7.672H115.367V4.072H121.463ZM115.535 10.24H121.295V22H115.535V10.24ZM123.269 10.24H137.381V13.84H123.269V10.24ZM127.445 6.64H133.205V22H127.445V6.64Z" fill="white"/>
<path d="M137.056 33.664V32.352H140.528V33.664H137.056ZM139.232 32.352H140.752V40H139.232V32.352ZM134 40V31.552L135.52 31.632V40H134ZM136.816 28.816H140.752V30.224H136.976C136.699 30.2133 136.448 30.2507 136.224 30.336C136 30.4107 135.824 30.5493 135.696 30.752C135.579 30.9547 135.52 31.248 135.52 31.632L134 31.552C134 30.912 134.112 30.3893 134.336 29.984C134.571 29.5787 134.901 29.2853 135.328 29.104C135.755 28.912 136.251 28.816 136.816 28.816ZM132.448 32.352H137.68V33.664H132.448V32.352ZM142.167 32.016H147.335V33.344H142.167V32.016ZM143.991 29.904H145.511V40H143.991V29.904ZM148.789 32.016H150.325V40H148.789V32.016ZM153.365 31.856C153.813 31.856 154.219 31.92 154.581 32.048C154.944 32.176 155.253 32.368 155.509 32.624C155.765 32.8693 155.963 33.1787 156.101 33.552C156.251 33.9147 156.325 34.3307 156.325 34.8V40H154.805V35.136C154.805 34.5067 154.651 34.0373 154.341 33.728C154.043 33.408 153.584 33.248 152.965 33.248C152.485 33.248 152.048 33.36 151.653 33.584C151.259 33.808 150.933 34.1067 150.677 34.48C150.432 34.8427 150.283 35.2533 150.229 35.712L150.213 34.832C150.267 34.4053 150.379 34.0107 150.549 33.648C150.731 33.2853 150.955 32.9707 151.221 32.704C151.499 32.4267 151.819 32.2187 152.181 32.08C152.544 31.9307 152.939 31.856 153.365 31.856ZM164.496 37.408H165.952C165.867 37.9307 165.664 38.4 165.344 38.816C165.024 39.232 164.603 39.5627 164.08 39.808C163.557 40.0533 162.944 40.176 162.24 40.176C161.408 40.176 160.667 40 160.016 39.648C159.365 39.296 158.853 38.8107 158.48 38.192C158.107 37.5733 157.92 36.8533 157.92 36.032C157.92 35.2 158.101 34.4747 158.464 33.856C158.827 33.2267 159.328 32.736 159.968 32.384C160.608 32.032 161.339 31.856 162.16 31.856C163.024 31.856 163.749 32.0267 164.336 32.368C164.923 32.7093 165.355 33.216 165.632 33.888C165.92 34.5493 166.037 35.376 165.984 36.368H159.44C159.493 36.848 159.637 37.2747 159.872 37.648C160.117 38.0213 160.437 38.3147 160.832 38.528C161.237 38.7413 161.701 38.848 162.224 38.848C162.811 38.848 163.301 38.7147 163.696 38.448C164.091 38.1813 164.357 37.8347 164.496 37.408ZM162.176 33.168C161.483 33.168 160.907 33.3547 160.448 33.728C159.989 34.0907 159.685 34.576 159.536 35.184H164.448C164.405 34.5333 164.171 34.0373 163.744 33.696C163.317 33.344 162.795 33.168 162.176 33.168ZM167.25 37.408H168.658C168.711 37.8347 168.903 38.1867 169.234 38.464C169.564 38.7307 170.028 38.864 170.626 38.864C171.01 38.864 171.308 38.8213 171.522 38.736C171.735 38.64 171.884 38.512 171.97 38.352C172.066 38.192 172.114 38.016 172.114 37.824C172.114 37.5787 172.05 37.392 171.922 37.264C171.794 37.1253 171.612 37.0133 171.378 36.928C171.143 36.832 170.866 36.7413 170.546 36.656C170.194 36.56 169.842 36.448 169.49 36.32C169.138 36.192 168.812 36.0373 168.514 35.856C168.226 35.6747 167.991 35.4507 167.81 35.184C167.639 34.9067 167.554 34.5707 167.554 34.176C167.554 33.8453 167.623 33.536 167.762 33.248C167.911 32.96 168.119 32.7147 168.386 32.512C168.663 32.2987 168.983 32.1387 169.346 32.032C169.708 31.9147 170.108 31.856 170.546 31.856C171.154 31.856 171.666 31.968 172.082 32.192C172.498 32.4053 172.812 32.7093 173.026 33.104C173.25 33.4987 173.367 33.952 173.378 34.464H172.034C171.959 34.016 171.804 33.6907 171.57 33.488C171.335 33.2747 170.983 33.168 170.514 33.168C170.055 33.168 169.703 33.2587 169.458 33.44C169.212 33.6213 169.09 33.8667 169.09 34.176C169.09 34.4107 169.175 34.6027 169.346 34.752C169.516 34.8907 169.746 35.0133 170.034 35.12C170.322 35.2267 170.647 35.3387 171.01 35.456C171.351 35.5733 171.676 35.696 171.986 35.824C172.306 35.9413 172.588 36.0853 172.834 36.256C173.09 36.416 173.287 36.6293 173.426 36.896C173.575 37.152 173.65 37.472 173.65 37.856C173.65 38.3253 173.532 38.736 173.298 39.088C173.063 39.4293 172.722 39.696 172.274 39.888C171.836 40.08 171.303 40.176 170.674 40.176C170.098 40.176 169.607 40.1067 169.202 39.968C168.807 39.8293 168.471 39.648 168.194 39.424C167.927 39.2 167.719 38.9653 167.57 38.72C167.431 38.464 167.335 38.2187 167.282 37.984C167.239 37.7493 167.228 37.5573 167.25 37.408ZM174.906 37.408H176.314C176.367 37.8347 176.559 38.1867 176.89 38.464C177.221 38.7307 177.685 38.864 178.282 38.864C178.666 38.864 178.965 38.8213 179.178 38.736C179.391 38.64 179.541 38.512 179.626 38.352C179.722 38.192 179.77 38.016 179.77 37.824C179.77 37.5787 179.706 37.392 179.578 37.264C179.45 37.1253 179.269 37.0133 179.034 36.928C178.799 36.832 178.522 36.7413 178.202 36.656C177.85 36.56 177.498 36.448 177.146 36.32C176.794 36.192 176.469 36.0373 176.17 35.856C175.882 35.6747 175.647 35.4507 175.466 35.184C175.295 34.9067 175.21 34.5707 175.21 34.176C175.21 33.8453 175.279 33.536 175.418 33.248C175.567 32.96 175.775 32.7147 176.042 32.512C176.319 32.2987 176.639 32.1387 177.002 32.032C177.365 31.9147 177.765 31.856 178.202 31.856C178.81 31.856 179.322 31.968 179.738 32.192C180.154 32.4053 180.469 32.7093 180.682 33.104C180.906 33.4987 181.023 33.952 181.034 34.464H179.69C179.615 34.016 179.461 33.6907 179.226 33.488C178.991 33.2747 178.639 33.168 178.17 33.168C177.711 33.168 177.359 33.2587 177.114 33.44C176.869 33.6213 176.746 33.8667 176.746 34.176C176.746 34.4107 176.831 34.6027 177.002 34.752C177.173 34.8907 177.402 35.0133 177.69 35.12C177.978 35.2267 178.303 35.3387 178.666 35.456C179.007 35.5733 179.333 35.696 179.642 35.824C179.962 35.9413 180.245 36.0853 180.49 36.256C180.746 36.416 180.943 36.6293 181.082 36.896C181.231 37.152 181.306 37.472 181.306 37.856C181.306 38.3253 181.189 38.736 180.954 39.088C180.719 39.4293 180.378 39.696 179.93 39.888C179.493 40.08 178.959 40.176 178.33 40.176C177.754 40.176 177.263 40.1067 176.858 39.968C176.463 39.8293 176.127 39.648 175.85 39.424C175.583 39.2 175.375 38.9653 175.226 38.72C175.087 38.464 174.991 38.2187 174.938 37.984C174.895 37.7493 174.885 37.5573 174.906 37.408Z" fill="white" fill-opacity="0.85"/>
<path d="M0 29.1306C0 29.0653 0.0626697 29.0182 0.125376 29.0365C18.0045 34.2377 36.9955 34.2377 54.8746 29.0365C54.9373 29.0182 55 29.0653 55 29.1306V30.936C55 30.9742 54.9755 31.008 54.9392 31.0199C37.1116 36.8544 17.8884 36.8544 0.0607789 31.0199C0.024522 31.008 0 30.9742 0 30.936V29.1306Z" fill="white" fill-opacity="0.85"/>
</svg>
