<svg width="25" height="26" viewBox="0 0 25 26" fill="none" xmlns="http://www.w3.org/2000/svg">
<path d="M14.3829 14.9683C14.3802 14.9711 14.3755 14.9692 14.3755 14.9653C14.3854 12.5098 12.3341 10.5481 9.88141 10.6675C9.87754 10.6676 9.87543 10.663 9.87811 10.6602L10.4373 10.0755C10.4379 10.0748 10.4388 10.0744 10.4398 10.0743C12.9512 9.8042 15.101 11.8601 14.9432 14.381C14.9432 14.382 14.9428 14.3829 14.9421 14.3836L14.3829 14.9683Z" fill="white"/>
<path d="M16.5645 14.924C16.5605 14.9282 16.5535 14.9254 16.5535 14.9196C16.5681 11.2768 13.525 8.36656 9.88645 8.54366C9.88071 8.54394 9.87758 8.53707 9.88155 8.53292L10.7111 7.6655C10.7121 7.66447 10.7134 7.66382 10.7148 7.66366C14.4405 7.26301 17.6297 10.313 17.3957 14.0528C17.3956 14.0542 17.395 14.0556 17.394 14.0566L16.5645 14.924Z" fill="white"/>
<path d="M18.8214 15.0061C18.8161 15.0116 18.8067 15.0079 18.8067 15.0002C18.8262 10.1292 14.7571 6.2378 9.89188 6.47461C9.8842 6.47498 9.88001 6.46579 9.88532 6.46024L10.9945 5.30037C10.9959 5.299 10.9976 5.29813 10.9995 5.29792C15.9813 4.76218 20.2457 8.84044 19.9328 13.8411C19.9327 13.843 19.9319 13.8448 19.9306 13.8462L18.8214 15.0061Z" fill="white"/>
<path fill-rule="evenodd" clip-rule="evenodd" d="M2.03555 9.18803C2.22445 8.99939 2.45128 8.85307 2.701 8.75874C2.95073 8.66441 3.21765 8.62423 3.48408 8.64087C3.75051 8.65751 4.01036 8.73059 4.24641 8.85526C4.48246 8.97993 4.68932 9.15334 4.85329 9.36401L6.79116 11.8538C7.14635 12.3105 7.27158 12.9054 7.13124 13.4668L6.5407 15.8313C6.51016 15.9538 6.51181 16.082 6.54549 16.2037C6.57916 16.3253 6.64371 16.4362 6.73287 16.5255L9.38543 19.1783C9.47486 19.2676 9.5859 19.3323 9.70775 19.366C9.82959 19.3997 9.95807 19.4012 10.0807 19.3705L12.4439 18.7799C12.721 18.7106 13.0101 18.7052 13.2895 18.7642C13.569 18.8231 13.8314 18.9448 14.0568 19.12L16.5464 21.0569C17.4414 21.7533 17.5234 23.0759 16.7224 23.876L15.6061 24.9924C14.8072 25.7913 13.6131 26.1422 12.5001 25.7503C9.65121 24.7478 7.06459 23.1168 4.9321 20.9781C2.79373 18.8458 1.16281 16.2593 0.160289 13.4107C-0.230525 12.2986 0.120344 11.1034 0.919244 10.3044L2.03555 9.18803Z" fill="#F8F8F8"/>
</svg>
