<svg width="14" height="14" viewBox="0 0 14 14" fill="none" xmlns="http://www.w3.org/2000/svg">
<path fill-rule="evenodd" clip-rule="evenodd" d="M1.64974 0.446419C1.80283 0.29354 1.98667 0.174946 2.18907 0.0984948C2.39146 0.022044 2.60779 -0.0105171 2.82372 0.0029692C3.03965 0.0164555 3.25025 0.0756813 3.44156 0.176722C3.63287 0.277762 3.80053 0.41831 3.93341 0.589051L5.50399 2.60689C5.79186 2.97704 5.89335 3.45918 5.77961 3.9142L5.301 5.83054C5.27625 5.9298 5.27759 6.03376 5.30488 6.13235C5.33217 6.23094 5.38448 6.32079 5.45674 6.39319L7.60655 8.54317C7.67903 8.61558 7.76903 8.66798 7.86777 8.69528C7.96652 8.72258 8.07065 8.72383 8.17003 8.69892L10.0853 8.22028C10.3099 8.16413 10.5442 8.15977 10.7707 8.20752C10.9972 8.25528 11.2098 8.35389 11.3926 8.49591L13.4102 10.0657C14.1356 10.6301 14.2021 11.7021 13.5529 12.3505L12.6481 13.2553C12.0007 13.9028 11.0329 14.1872 10.1308 13.8695C7.82195 13.0571 5.7256 11.7352 3.99729 10.0019C2.26422 8.27367 0.942415 6.17746 0.129908 3.8687C-0.186832 2.96741 0.097534 1.99874 0.745014 1.35121L1.64974 0.446419Z" fill="#FFE600" fill-opacity="0.85"/>
</svg>
