<svg width="50" height="50" viewBox="0 0 50 50" fill="none" xmlns="http://www.w3.org/2000/svg">
<path d="M25 0C11.1942 0 0 11.1942 0 25C0 38.8058 11.1942 50 25 50C38.8058 50 50 38.8058 50 25C50 11.1942 38.8058 0 25 0ZM35.798 16.8359L24.0458 33.1306C23.8815 33.3598 23.665 33.5466 23.4141 33.6755C23.1632 33.8044 22.8853 33.8716 22.6032 33.8716C22.3212 33.8716 22.0432 33.8044 21.7924 33.6755C21.5415 33.5466 21.325 33.3598 21.1607 33.1306L14.202 23.4877C13.99 23.192 14.202 22.779 14.5647 22.779H17.1819C17.7511 22.779 18.2924 23.0525 18.6272 23.5212L22.6004 29.0346L31.3728 16.8694C31.7076 16.4062 32.2433 16.1272 32.8181 16.1272H35.4353C35.798 16.1272 36.01 16.5402 35.798 16.8359Z" fill="#3B3732"/>
</svg>
